<svg xmlns="http://www.w3.org/2000/svg" width="310.92" height="310.92" viewBox="0 0 333.5 463.45">
    <circle cx="166.75" cy="231.725" r="231.725" fill="#BFE277"/>
    <g transform="matrix(1.15,0,0,1.15,-5.75,0)" fill="#08090A">
        <path fill-rule="evenodd" d="M5,65 L150,0 L295, 65 L150, 10 z M5,323 L150,403 L295,318 L150, 393 z"></path>
    </g>
    <g transform="matrix(1.7748186634087522,0,0,1.7748186634087522,81.79757531811552,65.55798353236605)" fill="#08090A">
        <g>
            <circle cx="48" cy="48" r="6"></circle>
            <path d="M19.2,48c0-7.7,3-14.9,8.4-20.4c1-1,1-2.6,0-3.5s-2.6-1-3.5,0C17.7,30.5,14.2,39,14.2,48
                c0,9,3.5,17.5,9.9,23.9c0.5,0.5,1.1,0.7,1.8,0.7s1.3-0.2,1.8-0.7c1-1,1-2.6,0-3.5C22.2,62.9,19.2,55.7,19.2,48z"></path>
            <path d="M71.9,24.1c-1-1-2.6-1-3.5,0s-1,2.6,0,3.5c11.2,11.2,11.2,29.5,0,40.8c-1,1-1,2.6,0,3.5
                c0.5,0.5,1.1,0.7,1.8,0.7s1.3-0.2,1.8-0.7C85.1,58.7,85.1,37.3,71.9,24.1z"></path>
            <path d="M37.6,34.1c-1-1-2.6-1-3.5,0c-7.7,7.7-7.7,20.2,0,27.9c0.5,0.5,1.1,0.7,1.8,0.7s1.3-0.2,1.8-0.7
                c1-1,1-2.6,0-3.5c-5.7-5.7-5.7-15.1,0-20.8C38.6,36.6,38.6,35,37.6,34.1z"></path>
            <path d="M61.9,34.1c-1-1-2.6-1-3.5,0s-1,2.6,0,3.5c5.7,5.7,5.7,15.1,0,20.8c-1,1-1,2.6,0,3.5
                c0.5,0.5,1.1,0.7,1.8,0.7s1.3-0.2,1.8-0.7C69.6,54.3,69.6,41.7,61.9,34.1z"></path>
        </g>
    </g>
    <g transform="matrix(4.04858307932048,0,0,4.04858307932048,17,181.00809760889004)" fill="#08090A">
        <path d="M7.96 40 l-3.96 0 l-4 -28.56 l3.84 0 l2.08 14.72 l1.92 -14.72 l3.84 0 z M19.508 11.36 l0 28.48 l-3.8 0 l0 -28.48 l3.8 0 z M28.536 40.04 l-5 0 l0 -28.52 l5 0 c3.4 0 6.12 2.76 6.12 6.16 l0 16.2 c0 1.64 -0.64 3.2 -1.8 4.36 s-2.68 1.8 -4.32 1.8 z M27.336000000000002 15.36 l0 20.84 l1.2 0 c0.6 0 1.2 -0.24 1.64 -0.68 s0.68 -1 0.68 -1.64 l0 -16.2 c0 -1.28 -1.04 -2.32 -2.32 -2.32 l-1.2 0 z M42.484 11.36 l0 28.48 l-3.8 0 l0 -28.48 l3.8 0 z M55.912 21.24 l0 3.76 l-5.64 0 l0 14.92 l-3.76 0 l0 -28.48 l9.32 0 l0 3.8 l-5.56 0 l0 6 l5.64 0 z M74.1 11.440000000000001 l-5.36 17.36 l0 11.2 l-3.88 0 l0 -11.24 l-4.92 -17.32 l4 0 l2.92 10.28 l3.2 -10.28 l4.04 0 z"></path>
    </g>
</svg>